<?xml version="1.0" standalone="no"?>
<!DOCTYPE svg PUBLIC "-//W3C//DTD SVG 20010904//EN"
 "http://www.w3.org/TR/2001/REC-SVG-20010904/DTD/svg10.dtd">
<svg version="1.0" xmlns="http://www.w3.org/2000/svg"
 width="400.000000pt" height="400.000000pt" viewBox="0 0 400.000000 400.000000"
 preserveAspectRatio="xMidYMid meet">
<metadata>
Created by potrace 1.14, written by Peter Selinger 2001-2017
</metadata>
<g transform="translate(0.000000,400.000000) scale(0.100000,-0.100000)"
fill="#000000" stroke="none">
<path d="M1817 3994 c-1 -1 -27 -5 -57 -8 -64 -7 -105 -14 -140 -22 -14 -3
-36 -8 -50 -10 -85 -16 -360 -105 -387 -126 -6 -5 -47 -27 -90 -48 -78 -39
-154 -81 -163 -90 -3 -3 -32 -23 -65 -45 -208 -139 -424 -367 -567 -598 -89
-143 -203 -405 -233 -537 -23 -101 -37 -171 -41 -200 -2 -19 -8 -57 -13 -85
-10 -52 -7 -452 3 -495 3 -14 9 -45 12 -70 3 -25 8 -48 10 -51 2 -3 6 -21 9
-40 41 -238 181 -546 352 -776 61 -82 204 -231 278 -289 27 -21 56 -44 63 -51
27 -25 201 -128 279 -165 107 -50 254 -98 343 -113 19 -3 48 -8 63 -11 71 -15
282 -19 387 -8 605 61 1147 525 1370 1171 43 123 76 250 86 325 3 24 7 49 10
56 15 47 23 325 12 442 -35 371 -241 724 -518 891 -147 89 -261 122 -415 120
-91 -1 -121 -5 -118 -15 1 -4 19 -21 40 -37 46 -37 133 -127 170 -177 16 -20
31 -39 34 -42 9 -7 71 -105 103 -164 54 -97 123 -287 142 -386 2 -14 7 -38 11
-55 25 -122 34 -332 19 -465 -59 -517 -353 -943 -763 -1109 -125 -51 -210 -66
-363 -65 -262 1 -491 103 -695 308 -138 140 -244 311 -315 511 -36 103 -32 89
-61 225 -35 168 -32 505 6 690 1 3 5 25 9 50 8 43 15 70 51 201 35 129 120
324 203 469 110 191 234 339 432 519 63 58 238 171 348 226 98 49 280 117 349
130 98 19 94 23 -20 22 -65 -1 -119 -3 -120 -3z"/>
<path d="M2230 3853 c-295 -26 -593 -145 -825 -331 -71 -57 -203 -186 -263
-258 -101 -119 -234 -348 -301 -516 -49 -125 -106 -333 -116 -428 -2 -19 -8
-64 -13 -98 -15 -104 -8 -375 12 -477 87 -440 370 -786 721 -880 73 -20 215
-30 281 -20 l48 7 -35 26 c-124 95 -282 299 -357 463 -103 224 -145 417 -146
674 -1 320 78 588 252 849 120 181 276 318 466 406 132 63 219 82 376 85 136
3 209 -7 315 -41 67 -21 193 -81 231 -110 17 -13 34 -24 38 -24 30 0 226 -207
299 -316 98 -147 192 -365 211 -488 4 -21 8 -41 11 -45 2 -4 7 -30 11 -57 3
-27 9 -70 13 -95 9 -54 7 -326 -2 -384 -3 -22 -9 -62 -12 -90 -3 -27 -8 -57
-10 -65 -2 -8 -6 -31 -9 -50 -3 -19 -17 -78 -31 -130 -14 -52 -27 -102 -29
-110 -10 -40 -83 -223 -117 -295 -43 -92 -155 -279 -202 -339 -17 -23 -35 -45
-39 -51 -45 -61 -191 -211 -273 -281 -205 -175 -535 -334 -770 -371 -16 -3
-32 -7 -35 -10 -6 -6 233 4 301 13 450 56 853 252 1171 568 97 96 258 293 258
314 0 6 4 12 8 14 13 5 91 143 143 253 68 146 136 357 154 485 4 24 8 47 11
51 16 27 25 390 12 514 -39 368 -181 725 -407 1020 -71 93 -238 253 -342 328
-146 105 -415 230 -542 253 -17 2 -33 6 -36 8 -3 2 -31 7 -61 11 -30 4 -58 9
-62 11 -9 6 -258 11 -308 7z"/>
</g>
</svg>
