<svg xmlns="http://www.w3.org/2000/svg" version="1.1" width="123" height="32" viewBox="0 0 123 32" xml:space="preserve">
<g transform="matrix(0.01 0 0 0.01 60.5 16)">
<g style="" vector-effect="non-scaling-stroke">
<g transform="matrix(0.13 0 0 -0.13 -4048.78 -54.19)">
<path style="stroke: none; stroke-width: 1; stroke-dasharray: none; stroke-linecap: butt; stroke-dashoffset: 0; stroke-linejoin: miter; stroke-miterlimit: 4; fill: #0092F6; fill-rule: nonzero; opacity: 1;"
      vector-effect="non-scaling-stroke" transform=" translate(-8227.28, -10406.98)"
      d="M 9645 19990 C 8179 19935 6801 19580 5505 18925 C 4475 18404 3585 17744 2775 16900 C 1761 15842 977 14544 514 13153 C 272 12425 115 11676 46 10910 C -7 10330 -7 9681 46 9085 C 177 7601 653 6145 1423 4870 C 1711 4393 2017 3972 2365 3574 C 2510 3407 2930 2982 3091 2839 C 4452 1626 6051 940 7770 831 C 8121 808 8643 819 9005 856 C 10499 1008 11910 1614 13110 2619 C 13492 2939 13908 3359 14231 3750 C 15475 5257 16243 7168 16414 9180 C 16517 10386 16389 11441 16018 12440 C 15839 12921 15573 13426 15289 13825 C 14517 14909 13475 15600 12345 15779 C 12147 15810 12006 15820 11765 15820 C 11534 15820 11392 15810 11213 15782 L 11106 15765 L 11195 15695 C 12101 14993 12798 14046 13253 12900 C 14134 10677 13941 8057 12747 6065 C 11897 4646 10612 3671 9189 3366 C 8286 3173 7342 3251 6463 3593 C 5766 3864 5064 4351 4527 4937 C 3420 6144 2759 7765 2650 9540 C 2609 10209 2674 11145 2816 11923 C 3242 14263 4347 16327 5970 17814 C 6760 18537 7622 19087 8580 19477 C 8738 19542 9101 19675 9165 19692 C 9176 19695 9254 19719 9339 19745 C 9555 19810 9880 19891 10110 19936 C 10217 19957 10309 19977 10314 19982 C 10320 19986 10288 19990 10244 19990 C 10199 19990 10096 19992 10014 19994 C 9932 19996 9766 19995 9645 19990 z"
      stroke-linecap="round"/>
</g>
    <g transform="matrix(0.13 0 0 -0.13 -3576.05 53.08)">
<path style="stroke: none; stroke-width: 1; stroke-dasharray: none; stroke-linecap: butt; stroke-dashoffset: 0; stroke-linejoin: miter; stroke-miterlimit: 4; fill: #0092F6; fill-rule: nonzero; opacity: 1;"
      vector-effect="non-scaling-stroke" transform=" translate(-11772.74, -9602.45)"
      d="M 11475 19193 C 10183 19132 9016 18779 7915 18117 C 6257 17121 4925 15470 4185 13495 C 3661 12096 3446 10495 3601 9155 C 3911 6472 5731 4379 7919 4189 C 8125 4171 8549 4182 8735 4210 C 8818 4222 8887 4234 8890 4237 C 8893 4239 8888 4246 8879 4250 C 8852 4265 8610 4459 8530 4529 C 8115 4893 7757 5301 7451 5758 C 6775 6769 6361 7955 6236 9240 C 6182 9791 6191 10439 6260 11000 C 6376 11934 6661 12851 7080 13631 C 7834 15036 8976 16051 10305 16495 C 11170 16785 12098 16815 12990 16584 C 14233 16261 15324 15442 16125 14230 C 16843 13144 17263 11850 17350 10455 C 17371 10123 17360 9583 17325 9150 C 17150 7029 16375 4989 15137 3390 C 14667 2784 14114 2221 13529 1758 C 12459 908 11188 316 9890 64 C 9783 43 9691 23 9687 20 C 9660 -3 10377 4 10725 30 C 12471 161 14105 723 15545 1688 C 17253 2832 18568 4465 19313 6370 C 19652 7234 19870 8158 19954 9090 C 20007 9666 20007 10330 19954 10910 C 19808 12535 19271 14081 18382 15440 C 18037 15968 17703 16378 17241 16841 C 16966 17115 16810 17258 16560 17459 C 15352 18436 13945 19024 12480 19165 C 12168 19195 11751 19207 11475 19193 z"
      stroke-linecap="round"/>
</g>
    <g transform="matrix(0.13 0 0 -0.13 -915.03 8.06)">
<path style="stroke: none; stroke-width: 1; stroke-dasharray: none; stroke-linecap: butt; stroke-dashoffset: 0; stroke-linejoin: miter; stroke-miterlimit: 4; fill: #0092F6; fill-rule: nonzero; opacity: 1;"
      vector-effect="non-scaling-stroke" transform=" translate(-31730.37, -9940.07)"
      d="M 31305 16244 C 31278 16242 31185 16236 31100 16230 C 30305 16174 29571 15995 28930 15701 C 28016 15280 27162 14458 26599 13455 C 26273 12874 26044 12180 25926 11420 C 25814 10701 25784 9814 25845 9079 C 25978 7490 26503 6235 27435 5281 C 27777 4931 28161 4631 28565 4399 C 28844 4239 29222 4072 29545 3964 C 30465 3659 31605 3560 32690 3691 C 33378 3774 33987 3949 34565 4229 C 34959 4421 35285 4631 35615 4906 C 36663 5781 37311 6994 37544 8520 C 37708 9589 37674 10833 37454 11825 C 37276 12628 36971 13345 36550 13946 C 36356 14224 36170 14441 35899 14705 C 35056 15528 33991 16024 32710 16190 C 32384 16232 32216 16242 31780 16245 C 31546 16246 31333 16246 31305 16244 z M 32200 14125 C 32983 14030 33588 13736 34103 13201 C 34672 12609 34977 11807 35082 10630 C 35100 10431 35100 9549 35082 9340 C 34992 8281 34729 7513 34252 6910 C 34147 6777 33857 6492 33721 6387 C 33269 6038 32804 5847 32210 5764 C 32057 5743 31586 5734 31420 5749 C 30633 5821 29999 6113 29454 6655 C 29240 6868 29095 7052 28950 7295 C 28636 7824 28452 8458 28375 9280 C 28353 9509 28344 10142 28359 10400 C 28442 11846 28853 12814 29658 13463 C 30133 13846 30694 14069 31330 14129 C 31393 14135 31463 14142 31485 14144 C 31583 14154 32073 14141 32200 14125 z"
      stroke-linecap="round"/>
</g>
    <g transform="matrix(0.13 0 0 -0.13 2351.42 7.87)">
<path style="stroke: none; stroke-width: 1; stroke-dasharray: none; stroke-linecap: butt; stroke-dashoffset: 0; stroke-linejoin: miter; stroke-miterlimit: 4; fill: #0092F6; fill-rule: nonzero; opacity: 1;"
      vector-effect="non-scaling-stroke" transform=" translate(-56228.77, -9941.51)"
      d="M 55755 16243 C 54824 16189 54153 16030 53530 15719 C 53159 15533 52880 15331 52605 15049 C 52466 14906 52380 14801 52271 14640 C 51881 14066 51692 13424 51713 12745 C 51740 11883 52055 11164 52680 10540 C 53060 10160 53522 9885 54240 9608 C 54664 9445 55050 9330 55940 9105 C 57324 8754 57656 8653 57985 8485 C 58269 8339 58440 8196 58563 7999 C 58790 7635 58782 7106 58543 6695 C 58408 6461 58173 6221 57935 6073 C 57826 6005 57657 5923 57535 5880 C 56976 5683 56126 5646 55515 5792 C 54671 5993 54123 6516 53823 7405 C 53769 7566 53729 7714 53691 7894 C 53675 7970 53660 8034 53657 8036 C 53652 8042 51279 7813 51273 7806 C 51270 7804 51278 7733 51290 7648 C 51487 6232 52078 5152 53022 4483 C 53564 4098 54290 3827 55085 3711 C 55528 3647 55723 3635 56330 3635 C 56905 3636 57059 3644 57475 3696 C 59103 3901 60185 4573 60790 5755 C 60997 6159 61116 6562 61171 7040 C 61198 7269 61185 7753 61144 8045 C 61013 8996 60568 9743 59799 10302 C 59217 10726 58299 11069 56735 11446 C 55560 11730 54902 11954 54532 12197 C 54430 12264 54281 12408 54220 12499 C 54034 12777 54009 13138 54157 13435 C 54230 13581 54341 13699 54515 13815 C 54823 14021 55198 14142 55693 14196 C 55879 14217 56358 14220 56535 14201 C 57504 14102 58002 13732 58265 12919 C 58303 12801 58354 12599 58365 12519 C 58369 12494 58375 12469 58378 12463 C 58383 12455 58762 12469 59609 12506 C 60283 12536 60835 12562 60837 12563 C 60838 12565 60835 12631 60830 12711 C 60764 13658 60440 14420 59841 15034 C 59551 15330 59272 15533 58897 15720 C 58299 16019 57553 16191 56655 16240 C 56487 16249 55888 16251 55755 16243 z"
      stroke-linecap="round"/>
</g>
    <g transform="matrix(0.13 0 0 -0.13 4491.74 7.87)">
<path style="stroke: none; stroke-width: 1; stroke-dasharray: none; stroke-linecap: butt; stroke-dashoffset: 0; stroke-linejoin: miter; stroke-miterlimit: 4; fill: #0092F6; fill-rule: nonzero; opacity: 1;"
      vector-effect="non-scaling-stroke" transform=" translate(-72281.18, -9941.51)"
      d="M 71865 16243 C 70934 16189 70263 16030 69640 15719 C 69269 15533 68990 15331 68715 15049 C 68576 14906 68490 14801 68381 14640 C 67991 14066 67802 13424 67823 12745 C 67850 11883 68165 11164 68790 10540 C 69170 10160 69632 9885 70350 9608 C 70774 9445 71160 9330 72050 9105 C 73434 8754 73766 8653 74095 8485 C 74379 8339 74550 8196 74673 7999 C 74900 7635 74892 7106 74653 6695 C 74518 6461 74283 6221 74045 6073 C 73936 6005 73767 5923 73645 5880 C 73086 5683 72236 5646 71625 5792 C 70781 5993 70233 6516 69933 7405 C 69879 7566 69839 7714 69801 7894 C 69785 7970 69770 8034 69767 8036 C 69762 8042 67389 7813 67383 7806 C 67380 7804 67388 7733 67400 7648 C 67597 6232 68188 5152 69132 4483 C 69674 4098 70400 3827 71195 3711 C 71638 3647 71833 3635 72440 3635 C 73015 3636 73169 3644 73585 3696 C 75089 3885 76131 4476 76750 5490 C 76930 5784 77055 6061 77145 6362 L 77180 6478 L 77178 7482 L 77175 8485 L 77137 8605 C 77027 8949 76922 9172 76744 9440 C 76526 9768 76246 10057 75909 10302 C 75327 10726 74409 11069 72845 11446 C 71670 11730 71012 11954 70642 12197 C 70540 12264 70391 12408 70330 12499 C 70144 12777 70119 13138 70267 13435 C 70340 13581 70451 13699 70625 13815 C 70933 14021 71308 14142 71803 14196 C 71989 14217 72468 14220 72645 14201 C 73614 14102 74112 13732 74375 12919 C 74413 12801 74464 12599 74475 12519 C 74479 12494 74485 12469 74488 12463 C 74493 12455 74872 12469 75719 12506 C 76393 12536 76945 12562 76947 12563 C 76948 12565 76945 12631 76940 12711 C 76874 13658 76550 14420 75951 15034 C 75661 15330 75382 15533 75007 15720 C 74409 16019 73663 16191 72765 16240 C 72597 16249 71998 16251 71865 16243 z"
      stroke-linecap="round"/>
</g>
    <g transform="matrix(0.13 0 0 -0.13 780.87 8.07)">
<path style="stroke: none; stroke-width: 1; stroke-dasharray: none; stroke-linecap: butt; stroke-dashoffset: 0; stroke-linejoin: miter; stroke-miterlimit: 4; fill: #0092F6; fill-rule: nonzero; opacity: 1;"
      vector-effect="non-scaling-stroke" transform=" translate(-44449.61, -9940)"
      d="M 41085 10908 C 39986 8085 38917 5340 38709 4807 L 38333 3840 L 39638 3842 L 40944 3845 L 41407 5120 C 41661 5821 41888 6446 41911 6508 L 41952 6620 L 44392 6618 L 46832 6615 L 47364 5230 L 47896 3845 L 49234 3842 C 50505 3840 50571 3841 50566 3857 C 50563 3867 49465 6611 48126 9955 L 45691 16035 L 44388 16038 L 43084 16040 L 41085 10908 z M 45200 10939 C 45659 9701 46037 8684 46038 8679 C 46040 8674 45382 8670 44376 8670 C 43460 8670 42710 8672 42710 8674 C 42710 8676 43075 9681 43521 10907 C 43967 12132 44337 13147 44342 13163 C 44348 13178 44355 13190 44358 13190 C 44362 13190 44741 12177 45200 10939 z"
      stroke-linecap="round"/>
</g>
    <g transform="matrix(0.13 0 0 -0.13 3443.58 8.07)">
<path style="stroke: none; stroke-width: 1; stroke-dasharray: none; stroke-linecap: butt; stroke-dashoffset: 0; stroke-linejoin: miter; stroke-miterlimit: 4; fill: #0092F6; fill-rule: nonzero; opacity: 1;"
      vector-effect="non-scaling-stroke" transform=" translate(-64420, -9940)"
      d="M 63190 9940 L 63190 3840 L 64420 3840 L 65650 3840 L 65650 9940 L 65650 16040 L 64420 16040 L 63190 16040 L 63190 9940 z"
      stroke-linecap="round"/>
</g>
</g>
</g>
</svg>
