<?xml version="1.0" encoding="utf-8"?>
<!-- Generator: Adobe Illustrator 27.2.0, SVG Export Plug-In . SVG Version: 6.00 Build 0)  -->
<svg version="1.1" id="Layer_1" xmlns="http://www.w3.org/2000/svg" xmlns:xlink="http://www.w3.org/1999/xlink" x="0px" y="0px"
	 viewBox="0 0 500 500" style="enable-background:new 0 0 500 500;" xml:space="preserve">
<style type="text/css">
	.st0{fill-rule:evenodd;clip-rule:evenodd;fill:#0092F6;}
	.st1{fill:#0092F6;}
</style>
<g>
	<path class="st0" d="M65.3,232.2c-4.5-5.7-11-9.3-18.2-9.3c-14,0-24.2,13-24.2,27.1c0,9.8,6.5,17.2,13.7,17.2c0.7,0,1.3-0.1,2-0.2
		c-4.9-3.6-8-10.1-8-17.1c0-11.1,7.5-19.8,16.4-19.8c9.7,0,16.4,9.6,16.4,19.8c0,7.5-2.7,15-7.4,20.5c-4.1,4.8-9.5,7.9-15.3,8.8
		c0,0,0.5,0.1,1.1,0.1c16.2,0,29.4-13.2,29.4-29.4C71.3,243.3,69,237.2,65.3,232.2z M60.8,250c0-9.8-6.5-17.2-13.7-17.2
		c-0.7,0-1.3,0.1-2,0.2c4.9,3.5,7.9,10,7.9,17c0,11.1-7.5,19.8-16.4,19.8c-9.7,0-16.4-9.6-16.4-19.8c0-7.5,2.7-15,7.4-20.5
		c4.1-4.8,9.5-7.9,15.3-8.8c0,0-0.5-0.1-1.2-0.1c-16.2,0-29.4,13.2-29.4,29.4c0,6.7,2.2,12.8,6,17.8c4.5,5.7,11,9.3,18.2,9.3
		C50.6,277.1,60.8,264.1,60.8,250L60.8,250z"/>
	<g>
		<path class="st1" d="M111,231.7c9.7,0,16.8,7.3,16.8,16.7s-7,16.7-16.8,16.7s-16.7-7.3-16.7-16.7C94.3,239,101.2,231.7,111,231.7z
			 M111,258.9c6.1,0,10.4-4.5,10.4-10.4S117.1,238,111,238c-6,0-10.4,4.5-10.4,10.4S105,258.9,111,258.9z"/>
		<path class="st1" d="M150.3,260.1h-12l-1.5,4.6h-6.3l10.7-32.5h6.6l10.6,32.5h-6.4L150.3,260.1z M148.3,253.9l-4-12.3l-4,12.3
			H148.3z"/>
		<path class="st1" d="M173.9,237.8c-3.1,0-5.1,1.7-5.1,3.9c0,1.4,0.9,2.4,2.3,2.9c2.1,0.8,5.3,0.3,8.4,1.3c4.1,1.2,6.7,4.4,6.7,8.8
			c0,6.1-4.7,10.6-11.8,10.6c-6.9,0-12.1-4.2-12.1-10.4h6.3c0,2.6,2.5,4.3,5.8,4.3c3.4,0,5.5-1.8,5.5-4.2c0-1.6-1-2.6-2.3-3.1
			c-2.1-0.8-5.5-0.5-8.4-1.3c-4.3-1.2-6.6-4.5-6.6-8.6c0-5.9,4.7-10.2,11.5-10.2c6.7,0,11.6,4.1,11.6,10h-6.4
			C179.2,239.3,177,237.8,173.9,237.8z"/>
		<path class="st1" d="M192.7,232.2h6.4v32.5h-6.4V232.2z"/>
		<path class="st1" d="M217.5,237.8c-3.1,0-5.1,1.7-5.1,3.9c0,1.4,0.9,2.4,2.3,2.9c2.1,0.8,5.3,0.3,8.4,1.3c4.1,1.2,6.7,4.4,6.7,8.8
			c0,6.1-4.7,10.6-11.8,10.6c-6.9,0-12.1-4.2-12.1-10.4h6.3c0,2.6,2.5,4.3,5.8,4.3c3.4,0,5.5-1.8,5.5-4.2c0-1.6-1-2.6-2.3-3.1
			c-2.1-0.8-5.5-0.5-8.4-1.3c-4.3-1.2-6.6-4.5-6.6-8.6c0-5.9,4.7-10.2,11.5-10.2c6.7,0,11.6,4.1,11.6,10h-6.4
			C222.8,239.3,220.6,237.8,217.5,237.8z"/>
		<path class="st1" d="M276.7,232.2v32.5h-6.3l-13.6-21.2v21.2h-6.3v-32.5h6.3l13.6,21.2v-21.2H276.7z"/>
		<path class="st1" d="M284.9,232.2h25.2v6.2h-18.9v6.8h10.5v6.2h-10.5v7h18.9v6.2h-25.2V232.2z"/>
		<path class="st1" d="M324.5,238.5H315v-6.2h25.2v6.2h-9.5v26.3h-6.4L324.5,238.5L324.5,238.5z"/>
		<path class="st1" d="M386.3,232.2l-9.3,32.5h-6.7l-5.2-18l-5.2,18h-6.7l-9.3-32.5h6.6l6.2,22.7l6.2-22.7h4.5l6.1,22.5l6.4-22.5
			L386.3,232.2L386.3,232.2z"/>
		<path class="st1" d="M406.1,231.7c9.7,0,16.8,7.3,16.8,16.7s-7,16.7-16.8,16.7c-9.7,0-16.7-7.3-16.7-16.7
			C389.4,239,396.4,231.7,406.1,231.7z M406.1,258.9c6.1,0,10.4-4.5,10.4-10.4s-4.3-10.4-10.4-10.4c-6,0-10.4,4.5-10.4,10.4
			S400.1,258.9,406.1,258.9z"/>
		<path class="st1" d="M441.9,255h-6v9.6h-6.4v-32.5h13.8c6.8,0,11.7,4.8,11.7,11.4c0,4.6-2.4,8.5-6.3,10.2l7,10.8h-7.5L441.9,255z
			 M436,248.9h7.5c3.1,0,5.3-2.2,5.3-5.2c0-3.1-2.1-5.2-5.2-5.2H436L436,248.9L436,248.9z"/>
		<path class="st1" d="M479.8,264.7L468.6,250v14.7h-6.4v-32.5h6.4v14.6l11.2-14.6h7.8l-12.5,16.1l12.6,16.4H479.8z"/>
	</g>
</g>
</svg>
