<?xml version="1.0" encoding="UTF-8"?>
<svg width="180px" height="180px" viewBox="0 0 180 180" version="1.1" xmlns="http://www.w3.org/2000/svg" xmlns:xlink="http://www.w3.org/1999/xlink">
    <title>oasis-icon-blue</title>
    <g id="Page-1" stroke="none" stroke-width="1" fill="none" fill-rule="evenodd">
        <g id="Artboard" transform="translate(-1008.000000, -241.000000)" fill="#0092F6">
            <path d="M1169.49029,276.221739 C1155.83602,258.757686 1135.79305,247.705217 1113.62804,247.705217 C1070.76114,247.705217 1039.39891,287.527165 1039.39891,330.667608 C1039.39891,360.741945 1059.36421,383.247606 1081.57432,383.247606 C1083.64877,383.247606 1085.70818,383.059767 1087.73754,382.686593 C1072.86315,371.841999 1063.34525,352.088811 1063.34525,330.667608 C1063.34525,296.558482 1086.42723,269.977958 1113.62804,269.977958 C1143.29413,269.977958 1163.92335,299.428668 1163.92335,330.667608 C1163.84569,353.739293 1155.61805,376.678237 1141.13951,393.603817 C1128.50242,408.37801 1112.13484,417.747438 1094.13876,420.720309 C1094.13876,420.720309 1095.63947,420.830508 1097.60118,420.830508 C1147.41296,420.830508 1187.79202,380.462574 1187.79202,330.667608 C1187.79202,310.210648 1180.9724,291.34907 1169.49029,276.221739 Z M1156.46459,331.272868 C1156.46459,301.196028 1136.49929,278.690366 1114.29168,278.690366 C1112.21473,278.690366 1110.15782,278.878205 1108.12596,279.253884 C1123.00285,290.098477 1132.51825,309.851666 1132.51825,331.272868 C1132.51825,365.381995 1109.43878,391.962518 1082.23797,391.962518 C1052.56937,391.962518 1031.94265,362.511809 1031.94265,331.272868 C1032.01781,308.201184 1040.24796,285.26224 1054.72399,268.33666 C1067.36358,253.562467 1083.73117,244.193038 1101.72474,241.220167 C1101.72474,241.220167 1100.22653,241.109968 1098.26482,241.109968 C1048.45304,241.109968 1008.07148,281.477902 1008.07148,331.272868 C1008.07148,351.727324 1014.8911,370.588902 1026.37572,385.721242 C1040.02748,403.180286 1060.07295,414.235259 1082.23797,414.235259 C1125.10486,414.235259 1156.46459,374.413312 1156.46459,331.272868 L1156.46459,331.272868 Z" id="oasis-icon-blue"></path>
        </g>
    </g>
</svg>